<?xml version="1.0" encoding="UTF-8"?>
<svg xmlns="http://www.w3.org/2000/svg"
  xmlns:xlink="http://www.w3.org/1999/xlink" width="192px" height="192px" viewBox="0 0 192 192" version="1.1">
  <g id="surface1">
    <path style=" stroke:none;fill-rule:evenodd;fill:#000;fill-opacity:1;" d="M 48 24 L 144 24 L 144 72 C 148.09375 72.421875 152.125 73.34375 156 74.761719 L 156 12 L 36 12 L 36 113.761719 L 48 92.761719 Z M 73.679688 120 L 60 96 L 48 117 L 39.480469 132 L 12 180 L 108 180 L 80.519531 132 Z M 32.640625 168 L 53.28125 132 L 60 120 L 66.71875 132 L 87.359375 168 Z M 114.671875 91.078125 C 127.144531 82.472656 143.289062 81.253906 156.914062 87.890625 C 170.539062 94.527344 179.535156 107.988281 180.449219 123.117188 C 181.363281 138.246094 174.054688 152.691406 161.328125 160.921875 C 142.054688 173.378906 116.347656 168.0625 103.601562 148.980469 C 90.851562 129.898438 95.78125 104.113281 114.671875 91.078125 Z M 121.332031 150.949219 C 130.242188 157.019531 141.726562 157.84375 151.414062 153.105469 C 161.097656 148.367188 167.496094 138.792969 168.167969 128.03125 C 168.839844 117.269531 163.6875 106.972656 154.667969 101.0625 C 140.898438 92.042969 122.429688 95.800781 113.285156 109.488281 C 104.136719 123.175781 107.730469 141.675781 121.332031 150.949219 Z M 121.332031 150.949219 "/>
  </g>
</svg>
