<?xml version="1.0" encoding="UTF-8"?>
<svg xmlns="http://www.w3.org/2000/svg"
  xmlns:xlink="http://www.w3.org/1999/xlink" width="512" height="512" viewBox="0 0 512 512" version="1.1">
  <g id="surface1">
    <path style=" stroke:none;fill-rule:evenodd;fill:#000;fill-opacity:1;" d="M 128 64 L 384 64 L 384 192 C 394.910156 193.121094 405.664062 195.585938 416 199.359375 L 416 32 L 96 32 L 96 303.359375 L 128 247.359375 Z M 196.480469 320 L 160 256 L 128 312 L 105.28125 352 L 32 480 L 288 480 L 214.71875 352 Z M 87.039062 448 L 142.078125 352 L 160 320 L 177.921875 352 L 232.960938 448 Z M 305.792969 242.878906 C 339.058594 219.925781 382.105469 216.675781 418.441406 234.375 C 454.777344 252.070312 478.757812 287.96875 481.195312 328.3125 C 483.632812 368.652344 464.148438 407.175781 430.207031 429.121094 C 378.8125 462.347656 310.265625 448.167969 276.269531 397.28125 C 242.273438 346.390625 255.417969 277.636719 305.792969 242.878906 Z M 323.550781 402.527344 C 347.3125 418.722656 377.9375 420.917969 403.765625 408.277344 C 429.59375 395.640625 446.652344 370.113281 448.449219 341.414062 C 450.246094 312.71875 436.5 285.261719 412.449219 269.503906 C 375.730469 245.445312 326.480469 255.472656 302.089844 291.96875 C 277.699219 328.46875 287.277344 377.804688 323.550781 402.527344 Z M 323.550781 402.527344 "/>
  </g>
</svg>
